<mxfile host="Electron" modified="2023-09-05T15:39:26.892Z" agent="Mozilla/5.0 (Windows NT 10.0; Win64; x64) AppleWebKit/537.36 (KHTML, like Gecko) draw.io/21.6.5 Chrome/114.0.5735.243 Electron/25.3.1 Safari/537.36" etag="IUfr7MIycS8W8otWXisz" version="21.6.5" type="device">
  <diagram name="Page-1" id="6BGtKghmtDv7WgaqEXGb">
    <mxGraphModel dx="819" dy="551" grid="1" gridSize="10" guides="1" tooltips="1" connect="1" arrows="1" fold="1" page="1" pageScale="1" pageWidth="850" pageHeight="1100" math="0" shadow="0">
      <root>
        <mxCell id="0" />
        <mxCell id="1" parent="0" />
        <mxCell id="np5gEOzZf3Pd5M8UJ70r-46" value="" style="shape=process;whiteSpace=wrap;html=1;backgroundOutline=1;" vertex="1" parent="1">
          <mxGeometry x="620" y="460" width="120" height="60" as="geometry" />
        </mxCell>
        <mxCell id="np5gEOzZf3Pd5M8UJ70r-22" value="" style="shape=cylinder3;whiteSpace=wrap;html=1;boundedLbl=1;backgroundOutline=1;size=15;direction=south;" vertex="1" parent="1">
          <mxGeometry x="150" y="335" width="590" height="90" as="geometry" />
        </mxCell>
        <mxCell id="np5gEOzZf3Pd5M8UJ70r-8" value="" style="rounded=0;whiteSpace=wrap;html=1;fillColor=#f5f5f5;fontColor=#333333;strokeColor=#666666;" vertex="1" parent="1">
          <mxGeometry x="170" y="350" width="120" height="60" as="geometry" />
        </mxCell>
        <mxCell id="np5gEOzZf3Pd5M8UJ70r-4" value="" style="rounded=0;whiteSpace=wrap;html=1;" vertex="1" parent="1">
          <mxGeometry x="180" y="360" width="20" height="40" as="geometry" />
        </mxCell>
        <mxCell id="np5gEOzZf3Pd5M8UJ70r-5" value="" style="rounded=0;whiteSpace=wrap;html=1;" vertex="1" parent="1">
          <mxGeometry x="220" y="360" width="20" height="40" as="geometry" />
        </mxCell>
        <mxCell id="np5gEOzZf3Pd5M8UJ70r-6" value="" style="rounded=0;whiteSpace=wrap;html=1;" vertex="1" parent="1">
          <mxGeometry x="260" y="360" width="20" height="40" as="geometry" />
        </mxCell>
        <mxCell id="np5gEOzZf3Pd5M8UJ70r-9" value="Log files" style="text;html=1;strokeColor=none;fillColor=none;align=center;verticalAlign=middle;whiteSpace=wrap;rounded=0;" vertex="1" parent="1">
          <mxGeometry x="290" y="290" width="60" height="30" as="geometry" />
        </mxCell>
        <mxCell id="np5gEOzZf3Pd5M8UJ70r-10" value="" style="rounded=0;whiteSpace=wrap;html=1;fillColor=#f5f5f5;fontColor=#333333;strokeColor=#666666;" vertex="1" parent="1">
          <mxGeometry x="300" y="350" width="40" height="60" as="geometry" />
        </mxCell>
        <mxCell id="np5gEOzZf3Pd5M8UJ70r-11" value="" style="rounded=0;whiteSpace=wrap;html=1;" vertex="1" parent="1">
          <mxGeometry x="310" y="360" width="20" height="40" as="geometry" />
        </mxCell>
        <mxCell id="np5gEOzZf3Pd5M8UJ70r-15" value="" style="rounded=0;whiteSpace=wrap;html=1;fillColor=#f5f5f5;fontColor=#333333;strokeColor=#666666;" vertex="1" parent="1">
          <mxGeometry x="350" y="350" width="40" height="60" as="geometry" />
        </mxCell>
        <mxCell id="np5gEOzZf3Pd5M8UJ70r-16" value="" style="rounded=0;whiteSpace=wrap;html=1;" vertex="1" parent="1">
          <mxGeometry x="360" y="360" width="20" height="40" as="geometry" />
        </mxCell>
        <mxCell id="np5gEOzZf3Pd5M8UJ70r-17" value="" style="rounded=0;whiteSpace=wrap;html=1;fillColor=#f5f5f5;fontColor=#333333;strokeColor=#666666;" vertex="1" parent="1">
          <mxGeometry x="400" y="350" width="80" height="60" as="geometry" />
        </mxCell>
        <mxCell id="np5gEOzZf3Pd5M8UJ70r-18" value="" style="rounded=0;whiteSpace=wrap;html=1;" vertex="1" parent="1">
          <mxGeometry x="410" y="360" width="20" height="40" as="geometry" />
        </mxCell>
        <mxCell id="np5gEOzZf3Pd5M8UJ70r-19" value="" style="rounded=0;whiteSpace=wrap;html=1;" vertex="1" parent="1">
          <mxGeometry x="450" y="360" width="20" height="40" as="geometry" />
        </mxCell>
        <mxCell id="np5gEOzZf3Pd5M8UJ70r-21" value="Chunks" style="text;html=1;strokeColor=none;fillColor=none;align=center;verticalAlign=middle;whiteSpace=wrap;rounded=0;" vertex="1" parent="1">
          <mxGeometry x="340" y="290" width="60" height="30" as="geometry" />
        </mxCell>
        <mxCell id="np5gEOzZf3Pd5M8UJ70r-23" value="" style="shape=flexArrow;endArrow=classic;html=1;rounded=0;fillColor=#f5f5f5;strokeColor=#666666;" edge="1" parent="1">
          <mxGeometry width="50" height="50" relative="1" as="geometry">
            <mxPoint x="410" y="270" as="sourcePoint" />
            <mxPoint x="470" y="270" as="targetPoint" />
          </mxGeometry>
        </mxCell>
        <mxCell id="np5gEOzZf3Pd5M8UJ70r-24" value="" style="rounded=0;whiteSpace=wrap;html=1;fillColor=#f5f5f5;fontColor=#333333;strokeColor=#666666;" vertex="1" parent="1">
          <mxGeometry x="490" y="350" width="40" height="60" as="geometry" />
        </mxCell>
        <mxCell id="np5gEOzZf3Pd5M8UJ70r-25" value="" style="rounded=0;whiteSpace=wrap;html=1;" vertex="1" parent="1">
          <mxGeometry x="500" y="360" width="20" height="40" as="geometry" />
        </mxCell>
        <mxCell id="np5gEOzZf3Pd5M8UJ70r-27" value="" style="rounded=0;whiteSpace=wrap;html=1;fillColor=#f5f5f5;fontColor=#333333;strokeColor=#666666;" vertex="1" parent="1">
          <mxGeometry x="540" y="350" width="160" height="60" as="geometry" />
        </mxCell>
        <mxCell id="np5gEOzZf3Pd5M8UJ70r-28" value="" style="rounded=0;whiteSpace=wrap;html=1;" vertex="1" parent="1">
          <mxGeometry x="550" y="360" width="20" height="40" as="geometry" />
        </mxCell>
        <mxCell id="np5gEOzZf3Pd5M8UJ70r-29" value="" style="rounded=0;whiteSpace=wrap;html=1;" vertex="1" parent="1">
          <mxGeometry x="590" y="360" width="20" height="40" as="geometry" />
        </mxCell>
        <mxCell id="np5gEOzZf3Pd5M8UJ70r-30" value="" style="rounded=0;whiteSpace=wrap;html=1;" vertex="1" parent="1">
          <mxGeometry x="630" y="360" width="20" height="40" as="geometry" />
        </mxCell>
        <mxCell id="np5gEOzZf3Pd5M8UJ70r-32" value="Queue" style="text;strokeColor=none;fillColor=none;align=left;verticalAlign=middle;spacingLeft=4;spacingRight=4;overflow=hidden;points=[[0,0.5],[1,0.5]];portConstraint=eastwest;rotatable=0;whiteSpace=wrap;html=1;" vertex="1" parent="1">
          <mxGeometry x="405" y="290" width="80" height="30" as="geometry" />
        </mxCell>
        <mxCell id="np5gEOzZf3Pd5M8UJ70r-33" value="Queue length" style="text;html=1;strokeColor=none;fillColor=none;align=center;verticalAlign=middle;whiteSpace=wrap;rounded=0;" vertex="1" parent="1">
          <mxGeometry x="450" y="425" width="90" height="30" as="geometry" />
        </mxCell>
        <mxCell id="np5gEOzZf3Pd5M8UJ70r-35" value="" style="endArrow=none;dashed=1;html=1;rounded=0;" edge="1" parent="1" source="np5gEOzZf3Pd5M8UJ70r-10" target="np5gEOzZf3Pd5M8UJ70r-9">
          <mxGeometry width="50" height="50" relative="1" as="geometry">
            <mxPoint x="260" y="530" as="sourcePoint" />
            <mxPoint x="310" y="480" as="targetPoint" />
          </mxGeometry>
        </mxCell>
        <mxCell id="np5gEOzZf3Pd5M8UJ70r-36" value="" style="endArrow=none;dashed=1;html=1;rounded=0;" edge="1" parent="1" source="np5gEOzZf3Pd5M8UJ70r-21" target="np5gEOzZf3Pd5M8UJ70r-16">
          <mxGeometry width="50" height="50" relative="1" as="geometry">
            <mxPoint x="120" y="570" as="sourcePoint" />
            <mxPoint x="200" y="380" as="targetPoint" />
          </mxGeometry>
        </mxCell>
        <mxCell id="np5gEOzZf3Pd5M8UJ70r-37" value="" style="endArrow=none;dashed=1;html=1;rounded=0;" edge="1" parent="1" source="np5gEOzZf3Pd5M8UJ70r-32" target="np5gEOzZf3Pd5M8UJ70r-22">
          <mxGeometry width="50" height="50" relative="1" as="geometry">
            <mxPoint x="420" y="570" as="sourcePoint" />
            <mxPoint x="470" y="520" as="targetPoint" />
          </mxGeometry>
        </mxCell>
        <mxCell id="np5gEOzZf3Pd5M8UJ70r-39" value="12" style="text;html=1;strokeColor=none;fillColor=none;align=center;verticalAlign=middle;whiteSpace=wrap;rounded=0;" vertex="1" parent="1">
          <mxGeometry x="390" y="425" width="60" height="30" as="geometry" />
        </mxCell>
        <mxCell id="np5gEOzZf3Pd5M8UJ70r-40" value="" style="endArrow=none;dashed=1;html=1;rounded=0;" edge="1" parent="1" source="np5gEOzZf3Pd5M8UJ70r-33" target="np5gEOzZf3Pd5M8UJ70r-39">
          <mxGeometry width="50" height="50" relative="1" as="geometry">
            <mxPoint x="420" y="570" as="sourcePoint" />
            <mxPoint x="470" y="520" as="targetPoint" />
          </mxGeometry>
        </mxCell>
        <mxCell id="np5gEOzZf3Pd5M8UJ70r-44" value="" style="points=[[0.145,0.145,0],[0.5,0,0],[0.855,0.145,0],[1,0.5,0],[0.855,0.855,0],[0.5,1,0],[0.145,0.855,0],[0,0.5,0]];shape=mxgraph.bpmn.event;html=1;verticalLabelPosition=bottom;labelBackgroundColor=#ffffff;verticalAlign=top;align=center;perimeter=ellipsePerimeter;outlineConnect=0;aspect=fixed;outline=standard;symbol=timer;" vertex="1" parent="1">
          <mxGeometry x="745" y="415" width="50" height="50" as="geometry" />
        </mxCell>
        <mxCell id="np5gEOzZf3Pd5M8UJ70r-42" value="" style="rounded=1;whiteSpace=wrap;html=1;strokeOpacity=100;fillOpacity=50;dashed=1;fillColor=#f5f5f5;shadow=0;glass=0;gradientColor=#b3b3b3;strokeColor=#666666;" vertex="1" parent="1">
          <mxGeometry x="657" y="355" width="45" height="160" as="geometry" />
        </mxCell>
        <mxCell id="np5gEOzZf3Pd5M8UJ70r-31" value="" style="rounded=0;whiteSpace=wrap;html=1;" vertex="1" parent="1">
          <mxGeometry x="670" y="360" width="20" height="40" as="geometry" />
        </mxCell>
        <mxCell id="np5gEOzZf3Pd5M8UJ70r-45" value="Parse" style="text;html=1;strokeColor=none;fillColor=none;align=center;verticalAlign=middle;whiteSpace=wrap;rounded=0;" vertex="1" parent="1">
          <mxGeometry x="740" y="475" width="60" height="30" as="geometry" />
        </mxCell>
        <mxCell id="np5gEOzZf3Pd5M8UJ70r-47" value="" style="rounded=0;whiteSpace=wrap;html=1;" vertex="1" parent="1">
          <mxGeometry x="660" y="470" width="40" height="40" as="geometry" />
        </mxCell>
        <mxCell id="np5gEOzZf3Pd5M8UJ70r-51" value="Timer" style="text;html=1;strokeColor=none;fillColor=none;align=center;verticalAlign=middle;whiteSpace=wrap;rounded=0;" vertex="1" parent="1">
          <mxGeometry x="740" y="385" width="60" height="30" as="geometry" />
        </mxCell>
        <mxCell id="np5gEOzZf3Pd5M8UJ70r-53" value="" style="shape=flexArrow;endArrow=classic;html=1;rounded=0;fillColor=default;" edge="1" parent="1">
          <mxGeometry width="50" height="50" relative="1" as="geometry">
            <mxPoint x="679.71" y="411.25" as="sourcePoint" />
            <mxPoint x="679.71" y="458.75" as="targetPoint" />
          </mxGeometry>
        </mxCell>
        <mxCell id="np5gEOzZf3Pd5M8UJ70r-54" value="Pull" style="text;html=1;strokeColor=none;fillColor=none;align=center;verticalAlign=middle;whiteSpace=wrap;rounded=0;" vertex="1" parent="1">
          <mxGeometry x="690" y="425" width="60" height="30" as="geometry" />
        </mxCell>
        <mxCell id="np5gEOzZf3Pd5M8UJ70r-55" value="Push" style="text;html=1;strokeColor=none;fillColor=none;align=center;verticalAlign=middle;whiteSpace=wrap;rounded=0;" vertex="1" parent="1">
          <mxGeometry x="190" y="297.5" width="60" height="30" as="geometry" />
        </mxCell>
        <mxCell id="np5gEOzZf3Pd5M8UJ70r-56" value="" style="shape=cylinder3;whiteSpace=wrap;html=1;boundedLbl=1;backgroundOutline=1;size=15;direction=south;fillColor=#eeeeee;strokeColor=#36393d;" vertex="1" parent="1">
          <mxGeometry x="70" y="207.5" width="170" height="90" as="geometry" />
        </mxCell>
        <mxCell id="np5gEOzZf3Pd5M8UJ70r-57" value="Pipe" style="text;html=1;strokeColor=none;fillColor=none;align=center;verticalAlign=middle;whiteSpace=wrap;rounded=0;" vertex="1" parent="1">
          <mxGeometry x="70" y="177.5" width="60" height="30" as="geometry" />
        </mxCell>
        <mxCell id="np5gEOzZf3Pd5M8UJ70r-58" value="" style="rounded=0;whiteSpace=wrap;html=1;" vertex="1" parent="1">
          <mxGeometry x="180" y="232.5" width="20" height="40" as="geometry" />
        </mxCell>
        <mxCell id="np5gEOzZf3Pd5M8UJ70r-59" value="..." style="rounded=0;whiteSpace=wrap;html=1;" vertex="1" parent="1">
          <mxGeometry x="90" y="232.5" width="70" height="40" as="geometry" />
        </mxCell>
        <mxCell id="np5gEOzZf3Pd5M8UJ70r-60" value="Inbound direction" style="text;strokeColor=none;fillColor=none;align=left;verticalAlign=middle;spacingLeft=4;spacingRight=4;overflow=hidden;points=[[0,0.5],[1,0.5]];portConstraint=eastwest;rotatable=0;whiteSpace=wrap;html=1;" vertex="1" parent="1">
          <mxGeometry x="405" y="220" width="80" height="30" as="geometry" />
        </mxCell>
        <mxCell id="np5gEOzZf3Pd5M8UJ70r-61" value="" style="shape=flexArrow;endArrow=classic;html=1;rounded=0;fillColor=default;" edge="1" parent="1">
          <mxGeometry width="50" height="50" relative="1" as="geometry">
            <mxPoint x="189.71000000000004" y="287.5" as="sourcePoint" />
            <mxPoint x="189.71000000000004" y="335" as="targetPoint" />
          </mxGeometry>
        </mxCell>
        <mxCell id="np5gEOzZf3Pd5M8UJ70r-62" value="Read" style="text;html=1;strokeColor=none;fillColor=none;align=center;verticalAlign=middle;whiteSpace=wrap;rounded=0;" vertex="1" parent="1">
          <mxGeometry x="160" y="177.5" width="60" height="30" as="geometry" />
        </mxCell>
        <mxCell id="np5gEOzZf3Pd5M8UJ70r-64" value="" style="shape=dataStorage;whiteSpace=wrap;html=1;fixedSize=1;fillColor=#eeeeee;strokeColor=#36393d;" vertex="1" parent="1">
          <mxGeometry x="570" y="560" width="160" height="80" as="geometry" />
        </mxCell>
        <mxCell id="np5gEOzZf3Pd5M8UJ70r-65" value="Data store&lt;br&gt;with expire" style="text;html=1;strokeColor=none;fillColor=none;align=center;verticalAlign=middle;whiteSpace=wrap;rounded=0;" vertex="1" parent="1">
          <mxGeometry x="745" y="585" width="60" height="30" as="geometry" />
        </mxCell>
        <mxCell id="np5gEOzZf3Pd5M8UJ70r-71" value="" style="rounded=0;whiteSpace=wrap;html=1;" vertex="1" parent="1">
          <mxGeometry x="659.5" y="580" width="40" height="40" as="geometry" />
        </mxCell>
        <mxCell id="np5gEOzZf3Pd5M8UJ70r-72" value="" style="rounded=0;whiteSpace=wrap;html=1;" vertex="1" parent="1">
          <mxGeometry x="600" y="580" width="40" height="40" as="geometry" />
        </mxCell>
        <mxCell id="np5gEOzZf3Pd5M8UJ70r-73" value="JSON Model" style="text;html=1;strokeColor=none;fillColor=none;align=center;verticalAlign=middle;whiteSpace=wrap;rounded=0;" vertex="1" parent="1">
          <mxGeometry x="580" y="650" width="80" height="30" as="geometry" />
        </mxCell>
        <mxCell id="np5gEOzZf3Pd5M8UJ70r-74" value="" style="endArrow=none;dashed=1;html=1;rounded=0;" edge="1" parent="1" source="np5gEOzZf3Pd5M8UJ70r-73" target="np5gEOzZf3Pd5M8UJ70r-72">
          <mxGeometry width="50" height="50" relative="1" as="geometry">
            <mxPoint x="520" y="560" as="sourcePoint" />
            <mxPoint x="570" y="510" as="targetPoint" />
          </mxGeometry>
        </mxCell>
        <mxCell id="np5gEOzZf3Pd5M8UJ70r-75" value="" style="endArrow=none;dashed=1;html=1;rounded=0;" edge="1" parent="1" source="np5gEOzZf3Pd5M8UJ70r-64" target="np5gEOzZf3Pd5M8UJ70r-65">
          <mxGeometry width="50" height="50" relative="1" as="geometry">
            <mxPoint x="760" y="690" as="sourcePoint" />
            <mxPoint x="810" y="640" as="targetPoint" />
          </mxGeometry>
        </mxCell>
        <mxCell id="np5gEOzZf3Pd5M8UJ70r-76" value="" style="shape=cylinder3;whiteSpace=wrap;html=1;boundedLbl=1;backgroundOutline=1;size=15;direction=south;fillColor=#eeeeee;strokeColor=#36393d;" vertex="1" parent="1">
          <mxGeometry x="300" y="550" width="170" height="90" as="geometry" />
        </mxCell>
        <mxCell id="np5gEOzZf3Pd5M8UJ70r-77" value="Pipe" style="text;html=1;strokeColor=none;fillColor=none;align=center;verticalAlign=middle;whiteSpace=wrap;rounded=0;" vertex="1" parent="1">
          <mxGeometry x="300" y="520" width="60" height="30" as="geometry" />
        </mxCell>
        <mxCell id="np5gEOzZf3Pd5M8UJ70r-78" value="" style="rounded=0;whiteSpace=wrap;html=1;" vertex="1" parent="1">
          <mxGeometry x="410" y="575" width="20" height="40" as="geometry" />
        </mxCell>
        <mxCell id="np5gEOzZf3Pd5M8UJ70r-79" value="..." style="rounded=0;whiteSpace=wrap;html=1;" vertex="1" parent="1">
          <mxGeometry x="320" y="575" width="70" height="40" as="geometry" />
        </mxCell>
        <mxCell id="np5gEOzZf3Pd5M8UJ70r-80" value="Write" style="text;html=1;strokeColor=none;fillColor=none;align=center;verticalAlign=middle;whiteSpace=wrap;rounded=0;" vertex="1" parent="1">
          <mxGeometry x="390" y="520" width="60" height="30" as="geometry" />
        </mxCell>
        <mxCell id="np5gEOzZf3Pd5M8UJ70r-81" value="" style="shape=flexArrow;endArrow=classic;html=1;rounded=0;fillColor=#f5f5f5;strokeColor=#666666;" edge="1" parent="1">
          <mxGeometry width="50" height="50" relative="1" as="geometry">
            <mxPoint x="470" y="670" as="sourcePoint" />
            <mxPoint x="410" y="670" as="targetPoint" />
          </mxGeometry>
        </mxCell>
        <mxCell id="np5gEOzZf3Pd5M8UJ70r-82" value="Outboud direction" style="text;strokeColor=none;fillColor=none;align=left;verticalAlign=middle;spacingLeft=4;spacingRight=4;overflow=hidden;points=[[0,0.5],[1,0.5]];portConstraint=eastwest;rotatable=0;whiteSpace=wrap;html=1;" vertex="1" parent="1">
          <mxGeometry x="400" y="690" width="80" height="30" as="geometry" />
        </mxCell>
        <mxCell id="np5gEOzZf3Pd5M8UJ70r-84" value="" style="shape=flexArrow;endArrow=classic;html=1;rounded=0;fillColor=default;" edge="1" parent="1">
          <mxGeometry width="50" height="50" relative="1" as="geometry">
            <mxPoint x="679.71" y="520" as="sourcePoint" />
            <mxPoint x="679.71" y="567.5" as="targetPoint" />
          </mxGeometry>
        </mxCell>
        <mxCell id="np5gEOzZf3Pd5M8UJ70r-85" value="Put" style="text;html=1;strokeColor=none;fillColor=none;align=center;verticalAlign=middle;whiteSpace=wrap;rounded=0;" vertex="1" parent="1">
          <mxGeometry x="690" y="520" width="60" height="30" as="geometry" />
        </mxCell>
        <mxCell id="np5gEOzZf3Pd5M8UJ70r-86" value="" style="shape=flexArrow;endArrow=classic;html=1;rounded=0;fillColor=default;" edge="1" parent="1">
          <mxGeometry width="50" height="50" relative="1" as="geometry">
            <mxPoint x="550" y="599.71" as="sourcePoint" />
            <mxPoint x="490" y="599.71" as="targetPoint" />
          </mxGeometry>
        </mxCell>
        <mxCell id="np5gEOzZf3Pd5M8UJ70r-88" value="Get" style="text;html=1;strokeColor=none;fillColor=none;align=center;verticalAlign=middle;whiteSpace=wrap;rounded=0;" vertex="1" parent="1">
          <mxGeometry x="500" y="570" width="60" height="30" as="geometry" />
        </mxCell>
        <mxCell id="np5gEOzZf3Pd5M8UJ70r-89" value="" style="endArrow=classic;html=1;rounded=0;entryX=0.068;entryY=0.125;entryDx=0;entryDy=0;entryPerimeter=0;" edge="1" parent="1">
          <mxGeometry width="50" height="50" relative="1" as="geometry">
            <mxPoint x="470" y="570.0000000000001" as="sourcePoint" />
            <mxPoint x="582.72" y="570.57" as="targetPoint" />
          </mxGeometry>
        </mxCell>
        <mxCell id="np5gEOzZf3Pd5M8UJ70r-90" value="" style="endArrow=classic;html=1;rounded=0;exitX=0;exitY=0.75;exitDx=0;exitDy=0;dashed=1;" edge="1" parent="1">
          <mxGeometry width="50" height="50" relative="1" as="geometry">
            <mxPoint x="577" y="627" as="sourcePoint" />
            <mxPoint x="467" y="627" as="targetPoint" />
          </mxGeometry>
        </mxCell>
        <mxCell id="np5gEOzZf3Pd5M8UJ70r-91" value="req" style="text;html=1;strokeColor=none;fillColor=none;align=center;verticalAlign=middle;whiteSpace=wrap;rounded=0;" vertex="1" parent="1">
          <mxGeometry x="490" y="545" width="60" height="30" as="geometry" />
        </mxCell>
        <mxCell id="np5gEOzZf3Pd5M8UJ70r-92" value="resp" style="text;html=1;strokeColor=none;fillColor=none;align=center;verticalAlign=middle;whiteSpace=wrap;rounded=0;" vertex="1" parent="1">
          <mxGeometry x="490" y="620" width="60" height="30" as="geometry" />
        </mxCell>
      </root>
    </mxGraphModel>
  </diagram>
</mxfile>
